<svg width="29" height="29" viewBox="0 0 29 29" fill="none" xmlns="http://www.w3.org/2000/svg">
<path d="M6.19308 4.32H27.3614L24.4814 14.4H7.74387M25.9214 20.16H8.64141L5.76141 1.44H1.44141M10.0814 25.92C10.0814 26.7153 9.43669 27.36 8.64141 27.36C7.84612 27.36 7.20141 26.7153 7.20141 25.92C7.20141 25.1247 7.84612 24.48 8.64141 24.48C9.43669 24.48 10.0814 25.1247 10.0814 25.92ZM25.9214 25.92C25.9214 26.7153 25.2767 27.36 24.4814 27.36C23.6861 27.36 23.0414 26.7153 23.0414 25.92C23.0414 25.1247 23.6861 24.48 24.4814 24.48C25.2767 24.48 25.9214 25.1247 25.9214 25.92Z" stroke="white" stroke-width="2.88" stroke-linecap="round" stroke-linejoin="round"/>
</svg>
