<svg width="24" height="24" viewBox="0 0 24 24" fill="none" xmlns="http://www.w3.org/2000/svg">
<path fill-rule="evenodd" clip-rule="evenodd" d="M6.5 7.75C6.9142 7.75 7.25 7.41421 7.25 7V2C7.25 1.58579 6.9142 1.25 6.5 1.25C6.0858 1.25 5.75 1.58579 5.75 2V7C5.75 7.41421 6.0858 7.75 6.5 7.75Z" fill="#0966C9" stroke="#0966C9" stroke-width="0.00024"/>
<path fill-rule="evenodd" clip-rule="evenodd" d="M17.5 16.25C17.9142 16.25 18.25 16.5858 18.25 17V22C18.25 22.4142 17.9142 22.75 17.5 22.75C17.0858 22.75 16.75 22.4142 16.75 22V17C16.75 16.5858 17.0858 16.25 17.5 16.25Z" fill="#0966C9" stroke="#0966C9" stroke-width="0.00024"/>
<path fill-rule="evenodd" clip-rule="evenodd" d="M6.5 22.75C6.9142 22.75 7.25 22.4142 7.25 22V13C7.25 12.5858 6.9142 12.25 6.5 12.25C6.0858 12.25 5.75 12.5858 5.75 13V22C5.75 22.4142 6.0858 22.75 6.5 22.75Z" fill="#0966C9" stroke="#0966C9" stroke-width="0.00024"/>
<path fill-rule="evenodd" clip-rule="evenodd" d="M17.5 1.25C17.9142 1.25 18.25 1.58579 18.25 2V11C18.25 11.4142 17.9142 11.75 17.5 11.75C17.0858 11.75 16.75 11.4142 16.75 11V2C16.75 1.58579 17.0858 1.25 17.5 1.25Z" fill="#0966C9" stroke="#0966C9" stroke-width="0.00024"/>
<path fill-rule="evenodd" clip-rule="evenodd" d="M8.85156 10C8.85156 11.2426 7.84416 12.25 6.60156 12.25C5.35896 12.25 4.35156 11.2426 4.35156 10C4.35156 8.75736 5.35896 7.75 6.60156 7.75C7.84416 7.75 8.85156 8.75736 8.85156 10ZM6.60156 13.75C8.67266 13.75 10.3516 12.0711 10.3516 10C10.3516 7.92893 8.67266 6.25 6.60156 6.25C4.53046 6.25 2.85156 7.92893 2.85156 10C2.85156 12.0711 4.53046 13.75 6.60156 13.75Z" fill="#0966C9" stroke="#0966C9" stroke-width="0.00024"/>
<path fill-rule="evenodd" clip-rule="evenodd" d="M19.8516 14C19.8516 12.7574 18.8442 11.75 17.6016 11.75C16.3589 11.75 15.3516 12.7574 15.3516 14C15.3516 15.2426 16.3589 16.25 17.6016 16.25C18.8442 16.25 19.8516 15.2426 19.8516 14ZM17.6016 10.25C19.6726 10.25 21.3516 11.9289 21.3516 14C21.3516 16.0711 19.6726 17.75 17.6016 17.75C15.5305 17.75 13.8516 16.0711 13.8516 14C13.8516 11.9289 15.5305 10.25 17.6016 10.25Z" fill="#0966C9" stroke="#0966C9" stroke-width="0.00024"/>
</svg>
