<svg width="18" height="18" viewBox="0 0 18 18" fill="none" xmlns="http://www.w3.org/2000/svg">
<path d="M15.9154 6C15.3983 4.36202 14.5711 3.47615 13.5681 3.12044C13.2824 3.01912 12.9762 3 12.673 3H12.2137C11.5555 3 10.9135 3.20419 10.3763 3.58442L9.9999 3.85081C9.70755 4.05772 9.3582 4.16883 9 4.16883C8.64187 4.16883 8.29252 4.05772 8.00017 3.85082L7.62375 3.58442C7.08646 3.20419 6.44448 3 5.78628 3H5.32693C5.02378 3 4.71757 3.01912 4.43186 3.12044C2.64484 3.75425 1.41562 6.07128 1.50453 11.327C1.52244 12.3859 1.77022 13.5563 2.72567 14.0132C3.02341 14.1556 3.3725 14.25 3.77003 14.25C4.24705 14.25 4.62585 14.114 4.91822 13.9224C5.60365 13.4732 6.10591 12.7229 6.83343 12.3457C7.27139 12.1186 7.75755 12 8.25082 12H9.74917C10.2424 12 10.7286 12.1186 11.1666 12.3457C11.8941 12.7229 12.3964 13.4732 13.0818 13.9224C13.3741 14.114 13.753 14.25 14.23 14.25C14.6275 14.25 14.9766 14.1556 15.2743 14.0132C16.2298 13.5563 16.4776 12.3859 16.4955 11.327C16.5099 10.4761 16.4897 9.70215 16.4382 9" stroke="#0966C9" stroke-width="1.125" stroke-linecap="round"/>
<path d="M5.625 6.75V9M4.5 7.875H6.75" stroke="#0966C9" stroke-width="1.125" stroke-linecap="round"/>
<path d="M14.25 7.6875C14.25 7.99815 13.9982 8.25 13.6875 8.25C13.3768 8.25 13.125 7.99815 13.125 7.6875C13.125 7.37684 13.3768 7.125 13.6875 7.125C13.9982 7.125 14.25 7.37684 14.25 7.6875Z" fill="#0966C9"/>
<path d="M12 7.6875C12 7.99815 11.7482 8.25 11.4375 8.25C11.1268 8.25 10.875 7.99815 10.875 7.6875C10.875 7.37684 11.1268 7.125 11.4375 7.125C11.7482 7.125 12 7.37684 12 7.6875Z" fill="#0966C9"/>
<path d="M12.5625 6C12.8732 6 13.125 6.25184 13.125 6.5625C13.125 6.87316 12.8732 7.125 12.5625 7.125C12.2518 7.125 12 6.87316 12 6.5625C12 6.25184 12.2518 6 12.5625 6Z" fill="#0966C9"/>
<path d="M12.5625 8.25C12.8732 8.25 13.125 8.50185 13.125 8.8125C13.125 9.12315 12.8732 9.375 12.5625 9.375C12.2518 9.375 12 9.12315 12 8.8125C12 8.50185 12.2518 8.25 12.5625 8.25Z" fill="#0966C9"/>
</svg>
