<svg width="30" height="30" viewBox="0 0 30 30" fill="none" xmlns="http://www.w3.org/2000/svg">
<g clip-path="url(#clip0_86_2622)">
<path d="M0 0.00146484H29.3532V29.3558H0V0.00146484Z" fill="#0078DC"/>
<path d="M0 0.00146484V22.5894H22.5869V0.00146484H0Z" fill="url(#paint0_linear_86_2622)"/>
<path d="M22.5859 22.5894V29.3557H29.352V22.5894H22.5859Z" fill="url(#paint1_linear_86_2622)"/>
<path d="M4.02205 14.7171C4.02205 15.2689 4.19502 15.7296 4.54096 16.0992C4.89214 16.4687 5.32981 16.6535 5.85396 16.6535C6.19991 16.6535 6.50916 16.575 6.78172 16.4181C7.05427 16.2561 7.28752 16.0182 7.48146 15.7043L8.22838 16.1371C7.99775 16.5624 7.67016 16.8965 7.24559 17.1395C6.82627 17.3825 6.35191 17.504 5.82252 17.504C4.99959 17.504 4.32344 17.2433 3.79404 16.7219C3.26989 16.2004 3.00781 15.5372 3.00781 14.7323C3.00781 13.9425 3.28299 13.2818 3.83335 12.7503C4.38372 12.2136 5.07036 11.9453 5.89328 11.9453C6.42267 11.9453 6.88393 12.0618 7.27704 12.2946C7.6754 12.5225 7.98727 12.8515 8.21265 13.2818L7.43429 13.7527C7.24035 13.4236 7.01758 13.1831 6.76599 13.0312C6.51964 12.8743 6.22087 12.7958 5.86969 12.7958C5.33505 12.7958 4.89214 12.9781 4.54096 13.3426C4.19502 13.7071 4.02205 14.1653 4.02205 14.7171Z" fill="url(#paint2_linear_86_2622)"/>
<path d="M8.62891 14.7323C8.62891 13.9425 8.90147 13.2818 9.44659 12.7503C9.99171 12.2136 10.6731 11.9453 11.4908 11.9453C12.3085 11.9453 12.9872 12.2111 13.5271 12.7427C14.067 13.2692 14.3369 13.9273 14.3369 14.7171C14.3369 15.5068 14.0644 16.17 13.5193 16.7067C12.9741 17.2383 12.2954 17.504 11.4829 17.504C10.6652 17.504 9.98384 17.2408 9.43872 16.7143C8.89885 16.1827 8.62891 15.522 8.62891 14.7323ZM9.64314 14.7171C9.64314 15.2689 9.81874 15.7296 10.1699 16.0992C10.5211 16.4687 10.9614 16.6535 11.4908 16.6535C12.0149 16.6535 12.45 16.4713 12.7959 16.1068C13.1419 15.7422 13.3148 15.2841 13.3148 14.7323C13.3148 14.1855 13.1392 13.7273 12.7881 13.3578C12.4369 12.9831 12.0018 12.7958 11.4829 12.7958C10.9535 12.7958 10.5132 12.9781 10.1621 13.3426C9.81611 13.7071 9.64314 14.1653 9.64314 14.7171Z" fill="url(#paint3_linear_86_2622)"/>
<path d="M18.5884 15.1599L20.0348 17.3829H18.8542L17.5564 15.3225H16.2976V17.3829H15.3047V11.9609H17.83C18.4868 11.9609 18.995 12.1055 19.3546 12.3947C19.7143 12.6787 19.8941 13.0815 19.8941 13.603C19.8941 13.9955 19.7794 14.3259 19.5501 14.5944C19.326 14.863 19.0054 15.0514 18.5884 15.1599ZM18.8777 13.634C18.8777 13.3706 18.7865 13.1692 18.6041 13.0298C18.4216 12.8852 18.1584 12.813 17.8144 12.813H16.2976V14.4783H17.7753C18.1193 14.4783 18.3877 14.4034 18.5806 14.2536C18.7787 14.1039 18.8777 13.8973 18.8777 13.634Z" fill="url(#paint4_linear_86_2622)"/>
<path d="M23.6966 16.6383C24.0471 16.6383 24.3653 16.575 24.6511 16.4485C24.9424 16.3169 25.2309 16.1093 25.5167 15.8258L26.1154 16.4485C25.781 16.7978 25.4035 17.0611 24.9828 17.2382C24.5675 17.4154 24.1145 17.504 23.6238 17.504C22.7663 17.504 22.0625 17.2458 21.5124 16.7295C20.9677 16.208 20.6953 15.5423 20.6953 14.7323C20.6953 13.9476 20.9677 13.2869 21.5124 12.7503C22.0571 12.2136 22.7393 11.9453 23.559 11.9453C24.395 11.9453 25.0718 12.201 25.5895 12.7123C26.1073 13.2186 26.3661 13.8767 26.3661 14.6867C26.3661 14.7576 26.3607 14.8285 26.35 14.8993C26.3446 14.9651 26.3338 15.0385 26.3176 15.1196H21.7712C21.8521 15.5803 22.0678 15.9498 22.4184 16.2283C22.7743 16.5016 23.2004 16.6383 23.6966 16.6383ZM23.5671 12.7882C23.1087 12.7882 22.715 12.9275 22.386 13.2059C22.0571 13.4793 21.8521 13.8463 21.7712 14.307H25.3064C25.2417 13.8311 25.0556 13.459 24.7482 13.1907C24.4408 12.9224 24.0471 12.7882 23.5671 12.7882Z" fill="url(#paint5_linear_86_2622)"/>
<path d="M26.0352 11.9805V12.0247H26.1737V12.4208H26.2206V12.0247H26.3591V11.9805H26.0352Z" fill="white"/>
<path d="M26.8409 12.0625V12.4208H26.8879V11.9805H26.8471L26.6647 12.2197L26.4822 11.9805H26.4414V12.4208H26.4887V12.0625L26.6647 12.2949L26.8409 12.0625Z" fill="white"/>
<path d="M3.27734 2.62598H3.99767V3.34633H3.27734V2.62598Z" fill="white"/>
<path d="M3.98131 6.37909V3.78223H3.29688V6.37652H3.98131V6.37909Z" fill="white"/>
<path d="M8.51121 6.4045V5.76874C8.41124 5.76874 8.32664 5.76362 8.26512 5.75336C8.19335 5.74311 8.13951 5.71747 8.10362 5.68158C8.06774 5.64569 8.04467 5.59442 8.03185 5.52521C8.0216 5.46112 8.01647 5.37652 8.01647 5.27398V4.36905H8.51121V3.782H8.01647V2.77197H7.33203V5.28167C7.33203 5.49445 7.34998 5.67389 7.38586 5.81745C7.42175 5.95845 7.48327 6.0738 7.56787 6.16096C7.65246 6.24812 7.76525 6.30965 7.90111 6.3481C8.03954 6.38656 8.21385 6.4045 8.42149 6.4045H8.51121Z" fill="white"/>
<path d="M12.4305 6.37911V2.57227H11.7461V6.37911H12.4305Z" fill="white"/>
<path d="M6.67318 4.03858C6.48348 3.8335 6.21689 3.73096 5.87851 3.73096C5.71445 3.73096 5.56321 3.76428 5.42991 3.83093C5.29405 3.89759 5.18126 3.98987 5.08898 4.1078L5.05309 4.1565V4.11292V3.78223H4.37891V6.37652H5.05821V4.99478V5.08963C5.05821 5.07425 5.05821 5.05887 5.05821 5.04349C5.06591 4.79995 5.12486 4.6205 5.23766 4.50514C5.35814 4.38209 5.50425 4.32057 5.67088 4.32057C5.86826 4.32057 6.0195 4.38209 6.11948 4.50002C6.21689 4.61794 6.26815 4.78457 6.26815 4.99734V5.00503V6.37652H6.95772V4.90506C6.96029 4.53591 6.86287 4.24366 6.67318 4.03858Z" fill="white"/>
<path d="M9.3568 4.83828C9.3568 4.64858 9.57469 4.31788 10.0438 4.31532C10.5129 4.31532 10.7334 4.64602 10.7334 4.83572L9.3568 4.83828ZM11.3896 5.07669C11.3896 4.88955 11.3563 4.71523 11.2922 4.55117C11.2255 4.38966 11.1333 4.24611 11.0179 4.12306C10.9 4.00001 10.759 3.90516 10.5949 3.83594C10.4309 3.76672 10.2489 3.7334 10.0515 3.7334C9.86436 3.7334 9.68748 3.76929 9.52342 3.8385C9.35936 3.91028 9.21581 4.00513 9.09533 4.12562C8.97485 4.24611 8.87744 4.38966 8.80823 4.55373C8.73645 4.7178 8.70312 4.89468 8.70312 5.08182C8.70312 5.26896 8.73645 5.44584 8.8031 5.60991C8.86975 5.77397 8.96459 5.91753 9.08251 6.03801C9.20043 6.1585 9.34655 6.25592 9.51573 6.32513C9.68492 6.39691 9.87205 6.4328 10.072 6.4328C10.6513 6.4328 11.0102 6.16876 11.2255 5.92266L10.7334 5.54838C10.6308 5.67143 10.3847 5.83806 10.0771 5.83806C9.88487 5.83806 9.72593 5.79448 9.60545 5.70476C9.48497 5.6176 9.40294 5.49455 9.35936 5.3433L9.35167 5.32023H11.3896L11.3896 5.07669Z" fill="white"/>
<path d="M13.5194 6.14443C13.504 6.18303 13.4808 6.21778 13.4538 6.2448C13.4268 6.27182 13.392 6.29499 13.3534 6.31043C13.3148 6.32587 13.2762 6.33359 13.2299 6.33359C13.1875 6.33359 13.145 6.32587 13.1064 6.31043C13.0678 6.29499 13.033 6.27182 13.006 6.2448C12.979 6.21778 12.9558 6.18303 12.9404 6.14443C12.925 6.10583 12.9172 6.06722 12.9172 6.0209C12.9172 5.97843 12.9249 5.93597 12.9404 5.89736C12.9558 5.85876 12.979 5.82402 13.006 5.79699C13.033 5.76997 13.0678 5.74681 13.1064 5.73137C13.145 5.71593 13.1836 5.7082 13.2299 5.7082C13.2724 5.7082 13.3148 5.71593 13.3534 5.73137C13.392 5.74681 13.4268 5.76997 13.4538 5.79699C13.4808 5.82402 13.504 5.85876 13.5194 5.89736C13.5349 5.93597 13.5426 5.97457 13.5426 6.0209C13.5426 6.06722 13.5349 6.10583 13.5194 6.14443ZM13.5812 5.8742C13.5619 5.82788 13.5349 5.78927 13.5001 5.75453C13.4654 5.71979 13.4268 5.69276 13.3805 5.67346C13.3341 5.65416 13.284 5.64258 13.2338 5.64258C13.1797 5.64258 13.1334 5.65416 13.0871 5.67346C13.0408 5.69276 13.0022 5.71979 12.9674 5.75453C12.9327 5.78927 12.9057 5.82788 12.8864 5.8742C12.8671 5.92053 12.8555 5.97071 12.8555 6.0209C12.8555 6.07494 12.8671 6.12127 12.8864 6.16759C12.9057 6.21392 12.9327 6.25252 12.9674 6.28726C13.0022 6.32201 13.0408 6.34903 13.0871 6.36833C13.1334 6.38763 13.1836 6.39922 13.2338 6.39922C13.2878 6.39922 13.3341 6.38763 13.3805 6.36833C13.4268 6.34903 13.4654 6.32201 13.5001 6.28726C13.5349 6.25252 13.5619 6.21392 13.5812 6.16759C13.6005 6.12127 13.6121 6.07108 13.6121 6.0209C13.6121 5.97071 13.6005 5.92053 13.5812 5.8742Z" fill="white"/>
<path d="M13.2596 5.98999C13.248 5.98999 13.2364 5.98999 13.221 5.98999H13.1631V5.86645H13.221C13.2326 5.86645 13.2442 5.86645 13.2596 5.86645C13.2712 5.86645 13.2828 5.87031 13.2943 5.87417C13.3059 5.87804 13.3136 5.88576 13.3175 5.89348C13.3252 5.9012 13.3252 5.91278 13.3252 5.92822C13.3252 5.94366 13.3214 5.95524 13.3175 5.96296C13.3098 5.97068 13.3021 5.97841 13.2943 5.98227C13.2828 5.98613 13.2712 5.98999 13.2596 5.98999ZM13.3021 6.05561C13.3329 6.05175 13.3561 6.04017 13.3754 6.02087C13.3947 6.00157 13.4063 5.97454 13.4063 5.93594C13.4063 5.89348 13.3947 5.86259 13.3677 5.83943C13.3445 5.81627 13.3021 5.80469 13.2519 5.80469H13.082V6.24091H13.1631V6.06333H13.221L13.3291 6.24091H13.414L13.3021 6.05561Z" fill="white"/>
<path fill-rule="evenodd" clip-rule="evenodd" d="M24.2734 24.2832H24.9538V25.0109H24.2734V24.2832ZM24.2734 25.4723H24.9538V27.6689H24.2734V25.4723Z" fill="white"/>
<path fill-rule="evenodd" clip-rule="evenodd" d="M25.5117 24.9513V24.271H27.8191V24.8982L26.5825 27.6767H25.806L27.0225 24.9513H25.5117Z" fill="white"/>
</g>
<defs>
<linearGradient id="paint0_linear_86_2622" x1="-3.25309e-08" y1="0.00146481" x2="29.3534" y2="29.3537" gradientUnits="userSpaceOnUse">
<stop stop-color="#004EA2"/>
<stop offset="0.429664" stop-color="#0966C9"/>
<stop offset="1" stop-color="#004EA2"/>
</linearGradient>
<linearGradient id="paint1_linear_86_2622" x1="-0.001173" y1="0.00134653" x2="29.3522" y2="29.3536" gradientUnits="userSpaceOnUse">
<stop stop-color="#004EA2"/>
<stop offset="0.429664" stop-color="#0966C9"/>
<stop offset="1" stop-color="#004EA2"/>
</linearGradient>
<linearGradient id="paint2_linear_86_2622" x1="14.6523" y1="11.8076" x2="14.6523" y2="17.4585" gradientUnits="userSpaceOnUse">
<stop stop-color="white"/>
<stop offset="1" stop-color="#AFD5F4"/>
</linearGradient>
<linearGradient id="paint3_linear_86_2622" x1="14.6531" y1="11.8076" x2="14.6531" y2="17.4585" gradientUnits="userSpaceOnUse">
<stop stop-color="white"/>
<stop offset="1" stop-color="#AFD5F4"/>
</linearGradient>
<linearGradient id="paint4_linear_86_2622" x1="14.9458" y1="11.6966" x2="14.9458" y2="17.4604" gradientUnits="userSpaceOnUse">
<stop stop-color="white"/>
<stop offset="1" stop-color="#AFD5F4"/>
</linearGradient>
<linearGradient id="paint5_linear_86_2622" x1="14.9962" y1="11.8076" x2="14.9962" y2="17.4585" gradientUnits="userSpaceOnUse">
<stop stop-color="white"/>
<stop offset="1" stop-color="#AFD5F4"/>
</linearGradient>
<clipPath id="clip0_86_2622">
<rect width="29.3532" height="29.3544" fill="white"/>
</clipPath>
</defs>
</svg>
