<svg width="96" height="96" viewBox="0 0 96 96" fill="none" xmlns="http://www.w3.org/2000/svg">
<g clip-path="url(#clip0_94_6717)">
<path d="M48 0C21.4912 0 0 21.4912 0 48C0 74.5088 21.4912 96 48 96C54.816 96.009 61.5552 94.562 67.7667 91.7557C66.5169 90.4274 65.5494 88.8594 64.9227 87.1466C64.296 85.4338 64.023 83.6117 64.1203 81.7905C64.2176 79.9692 64.6831 78.1866 65.4888 76.5503C66.2945 74.914 67.4235 73.4581 68.8077 72.2705C70.1919 71.0829 71.8026 70.1882 73.5423 69.6406C75.282 69.093 77.1147 68.9038 78.9296 69.0844C80.7444 69.2651 82.5039 69.8118 84.1015 70.6916C85.6992 71.5713 87.1018 72.7659 88.2248 74.2031C93.3132 66.4124 96.0155 57.3052 96 48C96 21.4912 74.5108 0 48 0ZM76.0754 61.6301C75.9995 63.2387 73.8234 64.9931 70.7181 65.9483C68.7904 66.5298 66.752 66.6441 64.7714 66.2817C62.7908 65.9192 60.9249 65.0906 59.3281 63.8641C56.8862 62.0057 53.6331 59.2062 50.9354 55.7652C45.9078 49.3428 41.4377 47.6663 36.1304 53.8109C30.823 59.9555 30.829 65.5426 30.2695 66.9414C29.71 68.3402 24.4046 74.0792 20.4941 67.439C16.5835 60.7988 33.6226 24.4886 35.8566 26.7226C35.8566 26.7226 36.4141 41.5257 34.7376 48.5036C34.7376 48.5036 41.7874 42.9184 50.1241 48.5036C58.4608 54.0887 62.3794 55.4854 62.3794 55.4854C62.3794 55.4854 51.7767 35.0973 47.0289 10.7906C47.0289 10.7906 43.6778 -1.77844 50.9394 8.83427C58.2011 19.447 68.2563 35.0893 74.3989 53.5232C74.3989 53.5312 76.2473 58.0272 76.0754 61.6301Z" fill="white"/>
<path d="M77.5937 73.082C75.5151 73.0825 73.4949 73.7701 71.8476 75.038C70.2004 76.3059 69.0186 78.0828 68.4862 80.0922C67.9538 82.1015 68.1007 84.2305 68.904 86.1476C69.7073 88.0648 71.122 89.6626 72.9277 90.6922C74.7335 91.7219 76.829 92.1256 78.888 91.8405C80.9471 91.5554 82.8541 90.5976 84.3121 89.1161C85.7702 87.6345 86.6975 85.7125 86.9498 83.6492C87.202 81.5859 86.7649 79.4971 85.7066 77.708C84.8726 76.2987 83.6858 75.131 82.2632 74.3199C80.8406 73.5087 79.2313 73.0821 77.5937 73.082Z" fill="white"/>
</g>
<defs>
<clipPath id="clip0_94_6717">
<rect width="96" height="96" fill="white"/>
</clipPath>
</defs>
</svg>
