<svg width="142" height="142" viewBox="0 0 142 142" fill="none" xmlns="http://www.w3.org/2000/svg">
<path d="M70.56 0C31.5921 0 0 31.5921 0 70.56C0 109.528 31.5921 141.12 70.56 141.12C80.5795 141.133 90.4862 139.006 99.6171 134.881C97.7799 132.928 96.3577 130.623 95.4364 128.106C94.5151 125.588 94.1138 122.909 94.2568 120.232C94.3999 117.555 95.0842 114.934 96.2686 112.529C97.4529 110.124 99.1126 107.983 101.147 106.238C103.182 104.492 105.55 103.177 108.107 102.372C110.665 101.567 113.359 101.289 116.026 101.554C118.694 101.82 121.281 102.623 123.629 103.917C125.978 105.21 128.04 106.966 129.69 109.079C137.17 97.6262 141.143 84.2386 141.12 70.56C141.12 31.5921 109.531 0 70.56 0ZM111.831 90.5962C111.719 92.9608 108.52 95.5399 103.956 96.944C101.122 97.7988 98.1255 97.9668 95.214 97.434C92.3025 96.9013 89.5597 95.6831 87.2123 93.8803C83.6228 91.1484 78.8406 87.0331 74.8751 81.9749C67.4845 72.534 60.9135 70.0695 53.1117 79.1021C45.3099 88.1346 45.3187 96.3477 44.4962 98.4039C43.6737 100.46 35.8748 108.896 30.1263 99.1353C24.3777 89.3742 49.4252 35.9982 52.7092 39.2822C52.7092 39.2822 53.5288 61.0427 51.0643 71.3002C51.0643 71.3002 61.4275 63.0901 73.6825 71.3002C85.9374 79.5104 91.6978 81.5636 91.6978 81.5636C91.6978 81.5636 76.1117 51.593 69.1324 15.8621C69.1324 15.8621 64.2063 -2.61431 74.881 12.9864C85.5556 28.5871 100.337 51.5813 109.366 78.6791C109.366 78.6908 112.084 85.3 111.831 90.5962Z" fill="#0966C9"/>
<path d="M114.069 107.431C111.013 107.432 108.044 108.443 105.622 110.306C103.201 112.17 101.463 114.782 100.681 117.736C99.8982 120.69 100.114 123.819 101.295 126.638C102.476 129.456 104.555 131.805 107.21 133.318C109.864 134.832 112.945 135.425 115.972 135.006C118.998 134.587 121.802 133.179 123.945 131.001C126.088 128.823 127.451 125.998 127.822 122.965C128.193 119.932 127.551 116.861 125.995 114.231C124.769 112.16 123.024 110.443 120.933 109.251C118.842 108.058 116.476 107.431 114.069 107.431Z" fill="#0966C9"/>
</svg>
