<svg width="18" height="18" viewBox="0 0 18 18" fill="none" xmlns="http://www.w3.org/2000/svg">
<path d="M9 4.5V2.25M12 4.5V3M6 4.5V3M13.5 9H15.75M13.5 12H15M13.5 6H15M9 13.5V15.75M6 13.5V15M12 13.5V15M4.5 9H2.25M4.5 6H3M4.5 12H3" stroke="#0966C9" stroke-width="1.5" stroke-linecap="round" stroke-linejoin="round"/>
<path d="M12.75 4.5H5.25C4.83579 4.5 4.5 4.83579 4.5 5.25V12.75C4.5 13.1642 4.83579 13.5 5.25 13.5H12.75C13.1642 13.5 13.5 13.1642 13.5 12.75V5.25C13.5 4.83579 13.1642 4.5 12.75 4.5Z" stroke="#0966C9" stroke-width="1.5" stroke-linecap="round" stroke-linejoin="round"/>
</svg>
