<svg width="48" height="48" viewBox="0 0 48 48" fill="none" xmlns="http://www.w3.org/2000/svg">
<path d="M15.0129 30.5293C15.2335 31.3277 16.0597 31.7963 16.8582 31.5757C17.6567 31.3551 18.1252 30.5289 17.9046 29.7303L15.0129 30.5293ZM6.4014 9.44902C5.60314 9.22754 4.77646 9.69512 4.55498 10.4934C4.3335 11.2917 4.80108 12.1183 5.59936 12.3398L6.4014 9.44902ZM40.3776 31.4507C41.1794 31.2425 41.6606 30.4235 41.4522 29.6217C41.2438 28.8199 40.425 28.3389 39.6232 28.5473L40.3776 31.4507ZM20.396 35.1175C21.0152 37.3589 19.6559 39.7235 17.2482 40.3493L18.0027 43.2529C21.9568 42.2253 24.373 38.2477 23.2876 34.3187L20.396 35.1175ZM17.2482 40.3493C14.8247 40.9791 12.3928 39.5725 11.7684 37.3123L8.87672 38.1111C9.95696 42.0213 14.0643 44.2765 18.0027 43.2529L17.2482 40.3493ZM11.7684 37.3123C11.1492 35.0709 12.5084 32.7063 14.9162 32.0805L14.1616 29.1769C10.2075 30.2045 7.79126 34.1821 8.87672 38.1111L11.7684 37.3123ZM14.9162 32.0805C17.3396 31.4507 19.7715 32.8573 20.396 35.1175L23.2876 34.3187C22.2074 30.4085 18.1 28.1535 14.1616 29.1769L14.9162 32.0805ZM17.9046 29.7303L13.6001 14.1493L10.7084 14.9482L15.0129 30.5293L17.9046 29.7303ZM9.8088 10.3944L6.4014 9.44902L5.59936 12.3398L9.00676 13.2852L9.8088 10.3944ZM13.6001 14.1493C13.0938 12.3168 11.6426 10.9032 9.8088 10.3944L9.00676 13.2852C9.85794 13.5213 10.4918 14.1643 10.7084 14.9482L13.6001 14.1493ZM22.219 36.1699L40.3776 31.4507L39.6232 28.5473L21.4644 33.2663L22.219 36.1699Z" fill="white"/>
<path d="M38.3274 12.4716C37.3574 8.96046 36.8724 7.20488 35.4464 6.40638C34.0206 5.60788 32.2104 6.0783 28.5904 7.0191L24.7506 8.01698C21.1304 8.95778 19.3204 9.42818 18.4971 10.8112C17.6738 12.1943 18.1588 13.9498 19.1289 17.461L20.1576 21.1852C21.1276 24.6962 21.6126 26.4518 23.0386 27.2504C24.4646 28.0488 26.2748 27.5784 29.8948 26.6376L33.7346 25.6398C37.3548 24.699 39.1648 24.2286 39.988 22.8454C40.4404 22.0858 40.4978 21.2138 40.297 20" stroke="white" stroke-width="3" stroke-linecap="round"/>
</svg>
