<svg width="18" height="17" viewBox="0 0 18 17" fill="none" xmlns="http://www.w3.org/2000/svg">
<path d="M3.75026 0.633938C3.75026 0.283852 3.46641 0 3.11667 0H2.88359C2.53385 0 2.25 0.283852 2.25 0.633938V2.38746H3.75026V0.633938Z" fill="#0966C9"/>
<path d="M6.74963 0.633938C6.74963 0.283852 6.46577 0 6.116 0H5.88327C5.53382 0 5.25 0.283852 5.25 0.633938V2.38746H6.74966L6.74963 0.633938Z" fill="#0966C9"/>
<path d="M9.74959 0.633938C9.74959 0.283852 9.46574 0 9.116 0H8.88327C8.53382 0 8.25 0.283852 8.25 0.633938V2.38746H9.74963V0.633938H9.74959Z" fill="#0966C9"/>
<path d="M12.75 0.633938C12.75 0.283852 12.4661 0 12.1167 0H11.8833C11.5339 0 11.25 0.283852 11.25 0.633938V2.38746H12.75V0.633938Z" fill="#0966C9"/>
<path d="M2.25 15.6513C2.25 16.0014 2.53385 16.2852 2.88359 16.2852H3.11667C3.46644 16.2852 3.75026 16.0014 3.75026 15.6513V13.8984H2.25V15.6513Z" fill="#0966C9"/>
<path d="M5.25003 15.6513C5.25003 16.0014 5.53389 16.2852 5.8833 16.2852H6.11604C6.46581 16.2852 6.74966 16.0014 6.74966 15.6513V13.8984H5.25L5.25003 15.6513Z" fill="#0966C9"/>
<path d="M8.25004 15.6513C8.25004 16.0014 8.53389 16.2852 8.8833 16.2852H9.11604C9.46577 16.2852 9.74963 16.0014 9.74963 15.6513V13.8984H8.25V15.6513H8.25004Z" fill="#0966C9"/>
<path d="M11.25 15.6513C11.25 16.0014 11.5339 16.2852 11.8833 16.2852H12.1167C12.4661 16.2852 12.75 16.0014 12.75 15.6513V13.8984H11.25V15.6513Z" fill="#0966C9"/>
<path d="M15.7499 0.633938C15.7499 0.283852 15.4667 0 15.116 0H14.8833C14.5338 0 14.25 0.283852 14.25 0.633938V2.38746H15.7499V0.633938Z" fill="#0966C9"/>
<path d="M14.25 15.6513C14.25 16.0014 14.5339 16.2852 14.8833 16.2852H15.116C15.4667 16.2852 15.7499 16.0014 15.7499 15.6513V13.8984H14.25V15.6513Z" fill="#0966C9"/>
<path d="M5.91389 7.0166H5.23868C5.22008 7.0166 5.21094 7.02574 5.21094 7.04438V7.88735C5.21094 7.90595 5.22008 7.91512 5.23868 7.91512H5.91389C6.20248 7.91512 6.39799 7.73818 6.39799 7.46822C6.39799 7.19354 6.20245 7.0166 5.91389 7.0166Z" fill="#0966C9"/>
<path d="M8.80666 7.31055L8.38281 8.53993H9.23939L8.82058 7.31055H8.80666Z" fill="#0966C9"/>
<path d="M0 3.3252V12.9607H18V3.3252H0ZM6.9743 9.68957H6.45708C6.41988 9.68957 6.4016 9.67568 6.3874 9.64288L5.78218 8.40879H5.23719C5.21859 8.40879 5.20945 8.41825 5.20945 8.43684V9.64284C5.20945 9.6709 5.19054 9.68953 5.16277 9.68953H4.70612C4.67835 9.68953 4.65975 9.67093 4.65975 9.64284V6.56948C4.65975 6.5414 4.67835 6.5228 4.70612 6.5228H5.93104C6.51326 6.5228 6.9415 6.90945 6.9415 7.46832C6.9415 7.88275 6.70405 8.20411 6.34103 8.33907L7.00678 9.62896C7.02541 9.66151 7.00682 9.68957 6.9743 9.68957ZM10.1351 9.68957H9.67837C9.64621 9.68957 9.62729 9.67568 9.61815 9.64288L9.40841 9.02817H8.21626L8.00687 9.64288C7.99741 9.67565 7.9791 9.68957 7.94633 9.68957H7.49468C7.46191 9.68957 7.45246 9.67097 7.46191 9.64288L8.5468 6.56952C8.55626 6.54143 8.57517 6.52283 8.60734 6.52283H9.03597C9.06845 6.52283 9.08736 6.54143 9.0965 6.56952L10.1675 9.64288C10.1767 9.67097 10.1675 9.68957 10.1351 9.68957ZM13.4216 9.64291C13.4216 9.67097 13.403 9.6896 13.3749 9.6896H12.9697C12.9419 9.6896 12.9233 9.671 12.9233 9.64291V7.70584H12.9047L12.2342 9.19604C12.2153 9.23798 12.1876 9.25658 12.1456 9.25658H11.8754C11.8337 9.25658 11.8057 9.23798 11.787 9.19604L11.1166 7.70584H11.098V9.64291C11.098 9.67097 11.0794 9.6896 11.0513 9.6896H10.646C10.6183 9.6896 10.5997 9.671 10.5997 9.64291V6.56956C10.5997 6.54147 10.6183 6.52287 10.646 6.52287H11.0604C11.1027 6.52287 11.1261 6.53707 11.1399 6.56956L12.0107 8.5208H12.0293L12.8862 6.56956C12.9 6.53707 12.9234 6.52287 12.9653 6.52287H13.375C13.403 6.52287 13.4217 6.54147 13.4217 6.56956V9.64291H13.4216Z" fill="#0966C9"/>
</svg>
