<svg width="18" height="18" viewBox="0 0 18 18" fill="none" xmlns="http://www.w3.org/2000/svg">
<path d="M13.125 2.25011H4.875C4.03024 2.20292 3.20113 2.49193 2.56876 3.05403C1.9364 3.61613 1.55219 4.40564 1.5 5.25011V9.75014C1.55219 10.5946 1.9364 11.3841 2.56876 11.9462C3.20113 12.5083 4.03024 12.7973 4.875 12.7501H13.125C13.9697 12.7973 14.7989 12.5083 15.4313 11.9462C16.0636 11.3841 16.4478 10.5946 16.5 9.75014V5.25011C16.4478 4.40564 16.0636 3.61613 15.4313 3.05403C14.7989 2.49193 13.9697 2.20292 13.125 2.25011Z" stroke="#0966C9" stroke-width="1.125" stroke-linecap="round" stroke-linejoin="round"/>
<path d="M9 12.75V15.75" stroke="#0966C9" stroke-width="1.125" stroke-linecap="round" stroke-linejoin="round"/>
<path d="M11.9258 15.75H5.92578" stroke="#0966C9" stroke-width="1.125" stroke-linecap="round" stroke-linejoin="round"/>
</svg>
