<svg width="18" height="18" viewBox="0 0 18 18" fill="none" xmlns="http://www.w3.org/2000/svg">
<path d="M2.25 6.75C2.25 4.62868 2.25 3.56802 2.90901 2.90901C3.56802 2.25 4.62868 2.25 6.75 2.25H11.25C13.3713 2.25 14.4319 2.25 15.091 2.90901C15.75 3.56802 15.75 4.62868 15.75 6.75V10.5C15.75 11.9142 15.75 12.6213 15.3106 13.0606C14.8713 13.5 14.1642 13.5 12.75 13.5H5.25C3.83579 13.5 3.12868 13.5 2.68934 13.0606C2.25 12.6213 2.25 11.9142 2.25 10.5V6.75Z" stroke="#0966C9" stroke-width="1.125"/>
<path d="M16.5 15.75H1.5" stroke="#0966C9" stroke-width="1.125" stroke-linecap="round"/>
<path d="M11.25 11.25H6.75" stroke="#0966C9" stroke-width="1.125" stroke-linecap="round"/>
</svg>
