<svg width="35" height="35" viewBox="0 0 35 35" fill="none" xmlns="http://www.w3.org/2000/svg">
<path d="M29.301 12.849L28.7737 12.5556C28.6919 12.5101 28.6516 12.4872 28.612 12.4635C28.2187 12.228 27.8874 11.9025 27.6455 11.5131C27.6211 11.4739 27.5982 11.4328 27.5513 11.3516C27.5045 11.2705 27.4807 11.2294 27.4589 11.1887C27.242 10.7836 27.1246 10.3322 27.1176 9.8727C27.1168 9.82651 27.117 9.77932 27.1186 9.68547L27.1289 9.0731C27.1454 8.09313 27.1537 7.60165 27.0159 7.16055C26.8937 6.76874 26.689 6.40787 26.4157 6.10161C26.1068 5.75544 25.6792 5.50846 24.8231 5.01515L24.112 4.60538C23.2584 4.11345 22.8314 3.8674 22.3781 3.77359C21.9772 3.69061 21.5633 3.69445 21.1639 3.78413C20.7129 3.88537 20.2912 4.13783 19.4486 4.64248L19.4437 4.64477L18.9342 4.94984C18.8537 4.99808 18.8129 5.02239 18.7725 5.04484C18.3717 5.26764 17.9245 5.39083 17.4661 5.40555C17.42 5.40703 17.3729 5.40703 17.2791 5.40703C17.1857 5.40703 17.1366 5.40703 17.0906 5.40555C16.6313 5.39077 16.1831 5.2669 15.7817 5.0432C15.7413 5.02065 15.7012 4.99614 15.6206 4.94767L15.1078 4.63984C14.2593 4.13041 13.8344 3.87532 13.3809 3.77359C12.9798 3.68359 12.5646 3.6811 12.1622 3.76516C11.7078 3.86007 11.2807 4.10795 10.4265 4.6037L10.4227 4.60538L9.72047 5.01296L9.71269 5.01771C8.8662 5.50901 8.44194 5.75525 8.13563 6.10001C7.86382 6.40596 7.66065 6.76626 7.53904 7.15703C7.40158 7.59872 7.40891 8.09128 7.42547 9.07586L7.43576 9.68737C7.43732 9.77996 7.44003 9.82599 7.43935 9.87153C7.43252 10.332 7.31362 10.7843 7.09601 11.1902C7.0745 11.2303 7.05131 11.2704 7.005 11.3506C6.95866 11.4308 6.93621 11.4707 6.91219 11.5094C6.66922 11.9009 6.33627 12.2283 5.94054 12.4642C5.9014 12.4876 5.86014 12.51 5.77909 12.5549L5.25844 12.8434C4.39218 13.3235 3.95916 13.5637 3.64407 13.9056C3.36532 14.2081 3.15474 14.5667 3.02621 14.9575C2.88091 15.3992 2.88103 15.8944 2.88329 16.8847L2.88512 17.6943C2.88735 18.6779 2.89042 19.1695 3.03605 19.6082C3.16488 19.9962 3.37391 20.3529 3.6511 20.6535C3.96441 20.9933 4.39313 21.2321 5.25281 21.7103L5.76882 21.9974C5.85665 22.0462 5.90084 22.0703 5.94319 22.0959C6.33532 22.3319 6.66567 22.6584 6.90656 23.0476C6.93258 23.0897 6.95757 23.1333 7.00754 23.2207C7.05687 23.3068 7.08211 23.3499 7.10494 23.3931C7.31614 23.7929 7.42923 24.2373 7.43693 24.6895C7.43777 24.7383 7.43706 24.7877 7.43538 24.8871L7.42547 25.4739C7.40879 26.4618 7.40152 26.9563 7.53979 27.3993C7.66212 27.7911 7.86655 28.152 8.13985 28.4583C8.44876 28.8044 8.87702 29.0513 9.73313 29.5446L10.4441 29.9541C11.2978 30.4462 11.7245 30.6918 12.1777 30.7857C12.5787 30.8687 12.9927 30.8655 13.3922 30.7758C13.8437 30.6744 14.2668 30.4211 15.112 29.915L15.6215 29.61C15.7021 29.5616 15.743 29.5374 15.7833 29.5149C16.1841 29.2922 16.6309 29.1683 17.0893 29.1536C17.1353 29.1522 17.1824 29.1522 17.2763 29.1522C17.3705 29.1522 17.4174 29.1522 17.4637 29.1536C17.9229 29.1685 18.3726 29.2927 18.7739 29.5164C18.8092 29.5361 18.8446 29.5574 18.9067 29.5947L19.4484 29.9199C20.297 30.4293 20.7211 30.6836 21.1745 30.7854C21.5756 30.8754 21.9912 30.879 22.3936 30.7951C22.8478 30.7002 23.2758 30.4518 24.1296 29.9563L24.8424 29.5426C25.6894 29.051 26.114 28.8044 26.4205 28.4596C26.6923 28.1537 26.8958 27.7936 27.0173 27.4027C27.1539 26.9643 27.1456 26.4755 27.1292 25.5051L27.1186 24.8722C27.117 24.7796 27.1168 24.7336 27.1176 24.6881C27.1243 24.2275 27.2413 23.775 27.4589 23.3692C27.4805 23.329 27.5038 23.2885 27.5499 23.2086C27.5962 23.1285 27.6203 23.0885 27.6443 23.0498C27.8872 22.6582 28.2205 22.3306 28.6163 22.0946C28.6549 22.0716 28.6948 22.0495 28.7739 22.0058L28.7766 22.0045L29.2972 21.7159C30.1635 21.2359 30.5973 20.9953 30.9124 20.6535C31.1912 20.3511 31.4014 19.9928 31.53 19.6021C31.6745 19.1631 31.6733 18.6707 31.6711 17.692L31.6693 16.8651C31.667 15.8813 31.6658 15.3898 31.5202 14.9512C31.3913 14.5631 31.1811 14.2065 30.9039 13.9058C30.591 13.5664 30.1616 13.3275 29.3036 12.8502L29.301 12.849Z" stroke="white" stroke-width="2.88" stroke-linecap="round" stroke-linejoin="round"/>
<path d="M11.5156 17.28C11.5156 20.4611 14.0945 23.04 17.2756 23.04C20.4568 23.04 23.0356 20.4611 23.0356 17.28C23.0356 14.0987 20.4568 11.5199 17.2756 11.5199C14.0945 11.5199 11.5156 14.0987 11.5156 17.28Z" stroke="white" stroke-width="2.88" stroke-linecap="round" stroke-linejoin="round"/>
</svg>
