<svg width="18" height="18" viewBox="0 0 18 18" fill="none" xmlns="http://www.w3.org/2000/svg">
<g clip-path="url(#clip0_145_6724)">
<path d="M9.84819 6.68131V6.90073C9.84819 7.45019 9.40111 7.89727 8.85165 7.89727H8.14727V5.68476H8.85165C9.4012 5.68476 9.84819 6.13185 9.84819 6.68131ZM12.969 5.68476H12.2646V7.89727H12.969C13.5185 7.89727 13.9656 7.45019 13.9656 6.90073V6.68131C13.9656 6.13185 13.5186 5.68476 12.969 5.68476ZM16.9174 1.39082V14.4778V15.3045V16.6091C16.9174 17.376 16.2935 17.9999 15.5266 17.9999H2.46894C1.70205 17.9999 1.07812 17.376 1.07812 16.6091V15.3045V14.4778V1.39082C1.07812 0.623929 1.70196 0 2.46894 0H15.5266C16.2935 0 16.9174 0.623929 16.9174 1.39082ZM11.3588 8.35025C11.3588 8.60038 11.5616 8.80323 11.8118 8.80323H12.9691C14.0182 8.80323 14.8716 7.94982 14.8716 6.90073V6.68131C14.8716 5.63221 14.0182 4.77881 12.9691 4.77881H11.8118C11.5616 4.77881 11.3588 4.98165 11.3588 5.23178V8.35025ZM7.24132 8.35025C7.24132 8.60038 7.44416 8.80323 7.69429 8.80323H8.85165C9.90074 8.80323 10.7541 7.94982 10.7541 6.90073V6.68131C10.7541 5.63221 9.90074 4.77881 8.85165 4.77881H7.69429C7.44416 4.77881 7.24132 4.98165 7.24132 5.23178V8.35025ZM3.12395 8.35025C3.12395 8.60038 3.32679 8.80323 3.57692 8.80323C3.82706 8.80323 4.0299 8.60038 4.0299 8.35025V7.24399H5.73082V8.35025C5.73082 8.60038 5.93367 8.80323 6.1838 8.80323C6.43393 8.80323 6.63678 8.60038 6.63678 8.35025V5.23178C6.63678 4.98165 6.43393 4.77881 6.1838 4.77881C5.93367 4.77881 5.73082 4.98165 5.73082 5.23178V6.33804H4.0299V5.23178C4.0299 4.98165 3.82706 4.77881 3.57692 4.77881C3.32679 4.77881 3.12395 4.98165 3.12395 5.23178V8.35025ZM16.0115 14.4778C16.0115 14.2105 15.794 13.993 15.5266 13.993H2.46894C2.2016 13.993 1.98408 14.2105 1.98408 14.4778V16.6091C1.98408 16.8764 2.2016 17.094 2.46894 17.094H15.5266C15.794 17.094 16.0115 16.8764 16.0115 16.6091V14.4778ZM3.71997 15.0905H3.69696C3.44683 15.0905 3.24398 15.2934 3.24398 15.5435C3.24398 15.7936 3.44683 15.9965 3.69696 15.9965H3.71997C3.97011 15.9965 4.17295 15.7936 4.17295 15.5435C4.17295 15.2934 3.97011 15.0905 3.71997 15.0905ZM14.4515 15.0905H13.3348C13.0847 15.0905 12.8819 15.2934 12.8819 15.5435C12.8819 15.7936 13.0847 15.9965 13.3348 15.9965H14.4515C14.7017 15.9965 14.9045 15.7936 14.9045 15.5435C14.9045 15.2934 14.7017 15.0905 14.4515 15.0905Z" fill="#0966C9"/>
</g>
<defs>
<clipPath id="clip0_145_6724">
<rect width="18" height="18" fill="white"/>
</clipPath>
</defs>
</svg>
