<svg width="48" height="48" viewBox="0 0 48 48" fill="none" xmlns="http://www.w3.org/2000/svg">
<path opacity="0.5" d="M32 8C36.35 8.02422 38.7058 8.21712 40.2426 9.75388C42 11.5112 42 14.3397 42 19.9965V31.9966C42 37.6534 42 40.4818 40.2426 42.2392C38.4852 43.9966 35.6568 43.9966 30 43.9966H18C12.3431 43.9966 9.51472 43.9966 7.75736 42.2392C6 40.4818 6 37.6534 6 31.9966V19.9965C6 14.3397 6 11.5112 7.75736 9.75388C9.29412 8.21712 11.6499 8.02422 16 8" stroke="white" stroke-width="3"/>
<path d="M18 26.8L21.4286 30L30 22" stroke="white" stroke-width="3" stroke-linecap="round" stroke-linejoin="round"/>
<path d="M16 7C16 5.34314 17.3431 4 19 4H29C30.6568 4 32 5.34314 32 7V9C32 10.6569 30.6568 12 29 12H19C17.3431 12 16 10.6569 16 9V7Z" stroke="white" stroke-width="3"/>
</svg>
