<svg width="31" height="31" viewBox="0 0 31 31" fill="none" xmlns="http://www.w3.org/2000/svg">
<g clip-path="url(#clip0_67_2068)">
<path d="M15.3609 13.44C14.0951 13.44 12.8578 13.0646 11.8053 12.3614C10.7528 11.6582 9.93251 10.6586 9.44811 9.48916C8.96371 8.31972 8.83697 7.03289 9.08391 5.79141C9.33086 4.54993 9.9404 3.40956 10.8355 2.5145C11.7305 1.61945 12.8709 1.00991 14.1124 0.762961C15.3538 0.516016 16.6407 0.642757 17.8101 1.12716C18.9796 1.61156 19.9791 2.43186 20.6823 3.48434C21.3856 4.53681 21.7609 5.77419 21.7609 7.03999C21.7609 8.73737 21.0867 10.3652 19.8864 11.5655C18.6862 12.7657 17.0583 13.44 15.3609 13.44ZM15.3609 3.19999C14.6015 3.19999 13.859 3.4252 13.2276 3.84714C12.5961 4.26909 12.1039 4.86881 11.8132 5.57048C11.5226 6.27215 11.4466 7.04425 11.5947 7.78913C11.7429 8.53402 12.1086 9.21824 12.6456 9.75528C13.1827 10.2923 13.8669 10.658 14.6118 10.8062C15.3567 10.9544 16.1288 10.8783 16.8304 10.5877C17.5321 10.297 18.1318 9.80486 18.5538 9.17338C18.9757 8.54189 19.2009 7.79947 19.2009 7.03999C19.2009 6.02156 18.7964 5.04484 18.0762 4.3247C17.3561 3.60456 16.3794 3.19999 15.3609 3.19999Z" fill="white"/>
<path d="M26.8825 30.08H3.8425C3.50302 30.08 3.17745 29.9451 2.9374 29.7051C2.69736 29.4651 2.5625 29.1395 2.5625 28.8V24.96C2.5625 22.2442 3.64135 19.6396 5.56173 17.7192C7.4821 15.7989 10.0867 14.72 12.8025 14.72H17.9225C20.6383 14.72 23.2429 15.7989 25.1633 17.7192C27.0836 19.6396 28.1625 22.2442 28.1625 24.96V28.8C28.1625 29.1395 28.0276 29.4651 27.7876 29.7051C27.5476 29.9451 27.222 30.08 26.8825 30.08ZM5.1225 27.52H25.6025V24.96C25.6025 22.9231 24.7934 20.9697 23.3531 19.5294C21.9128 18.0891 19.9594 17.28 17.9225 17.28H12.8025C10.7656 17.28 8.8122 18.0891 7.37192 19.5294C5.93164 20.9697 5.1225 22.9231 5.1225 24.96V27.52Z" fill="white"/>
</g>
<defs>
<clipPath id="clip0_67_2068">
<rect width="30.72" height="30.72" fill="white"/>
</clipPath>
</defs>
</svg>
