<svg width="29" height="29" viewBox="0 0 29 29" fill="none" xmlns="http://www.w3.org/2000/svg">
<g clip-path="url(#clip0_86_2655)">
<path d="M4.30078 0.0263672H24.3711C26.7322 0.0263672 28.6465 1.94064 28.6465 4.30176V24.3721C28.6465 26.7332 26.7322 28.6475 24.3711 28.6475H4.30078C1.93966 28.6475 0.0253906 26.7332 0.0253906 24.3721V4.30176C0.0254009 1.94064 1.93967 0.0263775 4.30078 0.0263672Z" fill="#25D366" stroke="white" stroke-width="0.0512"/>
<path d="M6.8899 22.0089L7.6739 18.3689C6.66623 16.7796 6.27314 14.8771 6.56837 13.0186C6.8636 11.16 7.82687 9.47298 9.27745 8.2741C10.728 7.07522 12.5662 6.44684 14.4471 6.50686C16.3281 6.56688 18.1225 7.31118 19.4937 8.6001C20.8649 9.88902 21.7186 11.634 21.8947 13.5076C22.0709 15.3812 21.5573 17.2547 20.4504 18.7766C19.3434 20.2985 17.7192 21.3642 15.8824 21.7737C14.0456 22.1833 12.1225 21.9085 10.4739 21.0009L6.8899 22.0089Z" fill="#25D366" stroke="white" stroke-width="1.3312"/>
<mask id="path-3-inside-1_86_2655" fill="white">
<path d="M17.2501 15.2889C17.0821 15.1769 16.9141 15.1209 16.7461 15.3449L16.0741 16.2409C15.9061 16.3529 15.7941 16.4089 15.5701 16.2969C14.7301 15.8489 13.5541 15.3449 12.5461 13.6649C12.4901 13.4409 12.6021 13.3289 12.7141 13.2169L13.2181 12.4329C13.3301 12.3209 13.2741 12.2089 13.2181 12.0969L12.5461 10.4729C12.3781 10.0249 12.2101 10.0809 12.0421 10.0809H11.5941C11.4821 10.0809 11.2581 10.1369 11.0341 10.3609C9.80206 11.5929 10.3061 13.3289 11.2021 14.4489C11.3701 14.6729 12.4901 16.6889 14.8981 17.7529C16.6901 18.5369 17.0821 18.4249 17.5861 18.3129C18.2021 18.2569 18.8181 17.7529 19.0981 17.2489C19.1541 17.0809 19.4341 16.3529 19.2101 16.2409"/>
</mask>
<path d="M17.2501 15.2889C17.0821 15.1769 16.9141 15.1209 16.7461 15.3449L16.0741 16.2409C15.9061 16.3529 15.7941 16.4089 15.5701 16.2969C14.7301 15.8489 13.5541 15.3449 12.5461 13.6649C12.4901 13.4409 12.6021 13.3289 12.7141 13.2169L13.2181 12.4329C13.3301 12.3209 13.2741 12.2089 13.2181 12.0969L12.5461 10.4729C12.3781 10.0249 12.2101 10.0809 12.0421 10.0809H11.5941C11.4821 10.0809 11.2581 10.1369 11.0341 10.3609C9.80206 11.5929 10.3061 13.3289 11.2021 14.4489C11.3701 14.6729 12.4901 16.6889 14.8981 17.7529C16.6901 18.5369 17.0821 18.4249 17.5861 18.3129C18.2021 18.2569 18.8181 17.7529 19.0981 17.2489C19.1541 17.0809 19.4341 16.3529 19.2101 16.2409" fill="white"/>
<path d="M16.0741 16.2409L16.1025 16.2835L16.1098 16.2786L16.115 16.2716L16.0741 16.2409ZM15.5701 16.2969L15.546 16.342L15.5472 16.3426L15.5701 16.2969ZM12.5461 13.6649L12.4964 13.6773L12.4982 13.6847L12.5022 13.6912L12.5461 13.6649ZM12.7141 13.2169L12.7511 13.2539L12.7571 13.2445L12.7141 13.2169ZM13.2181 12.4329L13.181 12.3958L13.175 12.4052L13.2181 12.4329ZM13.2181 12.0969L13.1706 12.1165L13.1723 12.1198L13.2181 12.0969ZM12.5461 10.4729L12.4981 10.4908L12.4988 10.4924L12.5461 10.4729ZM11.2021 14.4489L11.243 14.4181L11.242 14.4169L11.2021 14.4489ZM14.8981 17.7529L14.8774 17.7997L14.8775 17.7998L14.8981 17.7529ZM17.5861 18.3129L17.5814 18.2614L17.575 18.2629L17.5861 18.3129ZM19.0981 17.2489L19.1436 17.2742L19.1466 17.265L19.0981 17.2489ZM17.2501 15.2889L17.2785 15.2463C17.193 15.1893 17.0981 15.1397 16.9981 15.1397C16.8933 15.1397 16.7956 15.1934 16.7051 15.3141L16.7461 15.3449L16.787 15.3756C16.8645 15.2723 16.9348 15.2421 16.9981 15.2421C17.066 15.2421 17.1391 15.2764 17.2217 15.3315L17.2501 15.2889ZM16.7461 15.3449L16.7051 15.3141L16.0331 16.2101L16.0741 16.2409L16.115 16.2716L16.787 15.3756L16.7461 15.3449ZM16.0741 16.2409L16.0457 16.1983C15.9612 16.2546 15.8992 16.2906 15.8339 16.3025C15.7712 16.3139 15.6986 16.3039 15.593 16.2511L15.5701 16.2969L15.5472 16.3426C15.6655 16.4018 15.7609 16.4198 15.8522 16.4032C15.9409 16.3871 16.0189 16.3392 16.1025 16.2835L16.0741 16.2409ZM15.5701 16.2969L15.5942 16.2517C14.7533 15.8032 13.5898 15.3049 12.59 13.6385L12.5461 13.6649L12.5022 13.6912C13.5183 15.3848 14.7068 15.8945 15.546 16.342L15.5701 16.2969ZM12.5461 13.6649L12.5957 13.6524C12.5705 13.5516 12.5836 13.4802 12.6129 13.4218C12.6435 13.3604 12.6932 13.3102 12.7503 13.2531L12.7141 13.2169L12.6779 13.1806C12.623 13.2355 12.5606 13.2973 12.5213 13.376C12.4805 13.4575 12.4656 13.5541 12.4964 13.6773L12.5461 13.6649ZM12.7141 13.2169L12.7571 13.2445L13.2611 12.4605L13.2181 12.4329L13.175 12.4052L12.671 13.1892L12.7141 13.2169ZM13.2181 12.4329L13.2543 12.4691C13.3214 12.4019 13.3408 12.3302 13.3319 12.2585C13.3236 12.1921 13.2908 12.1279 13.2639 12.074L13.2181 12.0969L13.1723 12.1198C13.2013 12.1778 13.2246 12.2256 13.2303 12.2712C13.2353 12.3115 13.2267 12.3518 13.1819 12.3966L13.2181 12.4329ZM13.2181 12.0969L13.2654 12.0773L12.5934 10.4533L12.5461 10.4729L12.4988 10.4924L13.1708 12.1164L13.2181 12.0969ZM12.5461 10.4729L12.594 10.4549C12.5085 10.2269 12.4184 10.1138 12.317 10.0631C12.2664 10.0378 12.2166 10.0299 12.1702 10.0279C12.1472 10.027 12.1247 10.0275 12.1035 10.0281C12.0817 10.0288 12.062 10.0297 12.0421 10.0297V10.0809V10.1321C12.0641 10.1321 12.0864 10.1311 12.1067 10.1305C12.1275 10.1298 12.1469 10.1295 12.1659 10.1303C12.2035 10.1318 12.2378 10.1379 12.2712 10.1546C12.3377 10.1879 12.4156 10.2708 12.4981 10.4908L12.5461 10.4729ZM12.0421 10.0809V10.0297H11.5941V10.0809V10.1321H12.0421V10.0809ZM11.5941 10.0809V10.0297C11.4676 10.0297 11.2308 10.0917 10.9979 10.3246L11.0341 10.3609L11.0703 10.3971C11.2853 10.182 11.4965 10.1321 11.5941 10.1321V10.0809ZM11.0341 10.3609L10.9979 10.3246C10.3693 10.9532 10.1837 11.7114 10.2692 12.4527C10.3545 13.1923 10.7095 13.9151 11.1621 14.4808L11.2021 14.4489L11.242 14.4169C10.7986 13.8626 10.4536 13.1574 10.3709 12.441C10.2885 11.7263 10.4668 11.0005 11.0703 10.3971L11.0341 10.3609ZM11.2021 14.4489L11.1611 14.4796C11.3253 14.6985 12.4541 16.729 14.8774 17.7997L14.8981 17.7529L14.9188 17.706C12.526 16.6488 11.4148 14.6472 11.243 14.4181L11.2021 14.4489ZM14.8981 17.7529L14.8775 17.7998C15.7748 18.1923 16.3258 18.3625 16.7177 18.4195C17.1125 18.477 17.3443 18.419 17.5972 18.3628L17.5861 18.3129L17.575 18.2629C17.3238 18.3187 17.1076 18.3728 16.7324 18.3182C16.3543 18.2632 15.8133 18.0974 14.9186 17.7059L14.8981 17.7529ZM17.5861 18.3129L17.5907 18.3638C17.9105 18.3348 18.2272 18.1899 18.4984 17.9901C18.7698 17.7901 18.9989 17.5327 19.1428 17.2737L19.0981 17.2489L19.0533 17.224C18.9172 17.469 18.6983 17.7156 18.4377 17.9076C18.1769 18.0998 17.8776 18.2349 17.5814 18.2619L17.5861 18.3129ZM19.0981 17.2489L19.1466 17.265C19.1738 17.1836 19.2593 16.9554 19.309 16.7351C19.3338 16.6252 19.3508 16.513 19.3461 16.4194C19.3415 16.3289 19.3153 16.2362 19.233 16.1951L19.2101 16.2409L19.1872 16.2866C19.2168 16.3015 19.2396 16.3418 19.2438 16.4246C19.2478 16.5042 19.2333 16.6056 19.2091 16.7126C19.1609 16.9263 19.0783 17.1461 19.0495 17.2327L19.0981 17.2489Z" fill="white" mask="url(#path-3-inside-1_86_2655)"/>
</g>
<defs>
<clipPath id="clip0_86_2655">
<rect width="28.672" height="28.672" fill="white"/>
</clipPath>
</defs>
</svg>
